HIERARCHY
ROOT joint_Root
{
	OFFSET 0.0 0.0 0.0
	CHANNELS 6 Xposition Yposition Zposition Zrotation Xrotation Yrotation 
	JOINT Hips
	{
		OFFSET 4.5925 91.4895 -427.239
		CHANNELS 6 Xposition Yposition Zposition Zrotation Xrotation Yrotation 
		JOINT Spine
		{
			OFFSET 15.7357 0.0 0.0
			CHANNELS 6 Xposition Yposition Zposition Zrotation Xrotation Yrotation 
			JOINT Chest
			{
				OFFSET 8.98455 -0.406207 0.0
				CHANNELS 6 Xposition Yposition Zposition Zrotation Xrotation Yrotation 
				JOINT Neck
				{
					OFFSET 16.3773 0.0 0.0
					CHANNELS 6 Xposition Yposition Zposition Zrotation Xrotation Yrotation 
					JOINT Head
					{
						OFFSET 6.45672 0.0 0.0
						CHANNELS 6 Xposition Yposition Zposition Zrotation Xrotation Yrotation 
						End Site
						{
							OFFSET 0.0 0.0 0.0
						}
					}
				}
				JOINT Shoulder_L
				{
					OFFSET 12.9942 -0.242716 4.98039
					CHANNELS 6 Xposition Yposition Zposition Zrotation Xrotation Yrotation 
					JOINT UpperArm_L
					{
						OFFSET 5.34809 0.0 0.0
						CHANNELS 6 Xposition Yposition Zposition Zrotation Xrotation Yrotation 
						JOINT LowerArm_L
						{
							OFFSET 24.3286 1.87007e-05 0.0
							CHANNELS 6 Xposition Yposition Zposition Zrotation Xrotation Yrotation 
							JOINT Hand_L
							{
								OFFSET 22.2916 0.0 0.0
								CHANNELS 6 Xposition Yposition Zposition Zrotation Xrotation Yrotation 
								End Site
								{
									OFFSET 0.0 0.0 0.0
								}
							}
						}
					}
				}
				JOINT Shoulder_R
				{
					OFFSET 12.9945 -0.242716 -4.98039
					CHANNELS 6 Xposition Yposition Zposition Zrotation Xrotation Yrotation 
					JOINT UpperArm_R
					{
						OFFSET -5.34813 0.0 0.0
						CHANNELS 6 Xposition Yposition Zposition Zrotation Xrotation Yrotation 
						JOINT LowerArm_R
						{
							OFFSET -24.3289 0.000322201 0.0
							CHANNELS 6 Xposition Yposition Zposition Zrotation Xrotation Yrotation 
							JOINT Hand_R
							{
								OFFSET -22.2915 -0.000108084 0.0
								CHANNELS 6 Xposition Yposition Zposition Zrotation Xrotation Yrotation 
								End Site
								{
									OFFSET 0.0 0.0 0.0
								}
							}
						}
					}
				}
			}
		}
		JOINT UpperLeg_L
		{
			OFFSET -2.19248 -6.46944 0.0
			CHANNELS 6 Xposition Yposition Zposition Zrotation Xrotation Yrotation 
			JOINT LowerLeg_L
			{
				OFFSET 39.0811 0.0 -1.23785e-05
				CHANNELS 6 Xposition Yposition Zposition Zrotation Xrotation Yrotation 
				JOINT Foot_L
				{
					OFFSET 40.9854 0.0 -1.26872e-05
					CHANNELS 6 Xposition Yposition Zposition Zrotation Xrotation Yrotation 
					JOINT Toes_L
					{
						OFFSET 11.7543 0.0 0.0
						CHANNELS 6 Xposition Yposition Zposition Zrotation Xrotation Yrotation 
						End Site
						{
							OFFSET 0.0 0.0 0.0
						}
					}
				}
			}
		}
		JOINT UpperLeg_R
		{
			OFFSET -2.19251 6.46944 0.0
			CHANNELS 6 Xposition Yposition Zposition Zrotation Xrotation Yrotation 
			JOINT LowerLeg_R
			{
				OFFSET -39.0811 -0.00228153 -0.0401928
				CHANNELS 6 Xposition Yposition Zposition Zrotation Xrotation Yrotation 
				JOINT Foot_R
				{
					OFFSET -40.9854 0.0 0.0
					CHANNELS 6 Xposition Yposition Zposition Zrotation Xrotation Yrotation 
					JOINT Toes_R
					{
						OFFSET -11.7543 0.0 0.0
						CHANNELS 6 Xposition Yposition Zposition Zrotation Xrotation Yrotation 
						End Site
						{
							OFFSET 0.0 0.0 0.0
						}
					}
				}
			}
		}
	}
}
MOTION
Frames:	6
Frame Time:	0.0333333
0.000000 0.000000 0.000000 0.000000 0.000000 -0.000000 6.090820 91.859500 -48.593400 92.178500 8.073580 -10.385700 15.735700 0.000005 -0.000001 43.066300 80.552000 -42.588400 8.984550 -0.406207 -0.000000 5.317080 -13.785200 1.601530 16.377300 -0.000001 -0.000001 -1.042250 -3.339210 0.139220 6.456720 -0.000001 -0.000000 -8.282720 2.413320 4.107480 12.994200 -0.242716 4.980390 -88.085600 -6.573580 -73.722500 5.348090 -0.000007 -0.000001 -67.507600 22.509800 -15.267700 24.328600 0.000019 0.000005 11.294200 1.823790 -80.950800 22.291600 -0.000001 0.000005 3.746030 5.473540 -5.504990 12.994500 -0.242716 -4.980390 89.141400 2.304330 -69.547100 -5.348130 -0.000001 -0.000004 -67.883800 15.386900 26.657300 -24.328900 0.000322 -0.000009 -11.839200 -7.159320 -59.259800 -22.291500 -0.000108 -0.000004 11.519300 5.597890 -11.196300 -2.192480 -6.469440 -0.000000 -175.347000 -5.340140 12.877400 39.081100 -0.000007 -0.000012 0.465305 -0.206267 66.092500 40.985400 -0.000006 -0.000013 -8.798200 -1.384780 -21.355000 11.754300 -0.000000 0.000003 -0.001515 -0.022477 -17.490700 -2.192510 6.469440 -0.000001 -170.114000 26.210500 140.985000 -39.081100 -0.002282 -0.040193 -0.176226 0.481530 20.449100 -40.985400 0.000008 0.000006 -11.486300 20.606200 -71.157200 -11.754300 -0.000006 -0.000006 -0.021401 -0.174928 -23.722700
0.000000 0.000000 0.000000 0.000000 0.000000 -0.000000 5.870640 88.665400 -37.775800 89.963300 5.457580 -10.220900 15.735700 0.000005 -0.000001 49.830000 81.073000 -48.643400 8.984550 -0.406207 -0.000000 6.093040 -11.503600 2.990900 16.377300 -0.000001 -0.000001 -1.088330 -2.944090 -0.275215 6.456720 -0.000001 -0.000000 -9.323090 1.222110 4.022000 12.994200 -0.242716 4.980390 -89.010900 -3.268290 -73.145400 5.348090 -0.000007 -0.000001 -63.745700 25.370900 -13.181200 24.328600 0.000019 0.000005 11.105800 3.831930 -71.190500 22.291600 -0.000001 0.000005 1.857590 5.494820 -6.333280 12.994500 -0.242716 -4.980390 87.989600 6.011980 -71.460100 -5.348130 -0.000001 -0.000004 -64.551700 13.872800 20.147300 -24.328900 0.000322 -0.000009 -12.976300 -6.697810 -63.154700 -22.291500 -0.000108 -0.000004 13.183000 5.612170 -12.098900 -2.192480 -6.469440 -0.000000 -173.502000 -8.143750 4.740580 39.081100 -0.000007 -0.000012 0.914798 -0.025481 88.404000 40.985400 -0.000006 -0.000013 -9.706310 -5.052990 -15.520100 11.754300 -0.000000 0.000003 -0.001823 -0.026481 -17.653600 -2.192510 6.469440 -0.000001 -168.726000 19.429400 137.394000 -39.081100 -0.002282 -0.040193 0.400209 -0.547554 35.939100 -40.985400 0.000008 0.000006 8.055570 8.403560 -70.346800 -11.754300 -0.000006 -0.000006 -0.032039 -0.226659 -25.863900
0.000000 0.000000 0.000000 0.000000 0.000000 -0.000000 5.477260 85.044500 -27.811700 86.997700 3.109510 -10.282000 15.735700 0.000005 -0.000001 57.645800 81.517700 -55.384900 8.984550 -0.406207 -0.000000 6.814080 -9.068610 5.065270 16.377300 -0.000001 -0.000001 -3.072590 -2.150810 -0.211945 6.456720 -0.000001 -0.000000 -8.631650 0.846470 2.328510 12.994200 -0.242716 4.980390 -90.214700 0.697695 -72.890600 5.348090 -0.000007 -0.000001 -60.831900 27.146800 -10.013300 24.328600 0.000019 0.000005 9.545670 6.198310 -57.318800 22.291600 -0.000001 0.000005 -1.944530 5.494820 -6.313760 12.994500 -0.242716 -4.980390 87.232200 9.493420 -73.660600 -5.348130 -0.000001 -0.000004 -59.308300 13.244400 9.405060 -24.328900 0.000322 -0.000009 -12.443000 -5.094730 -68.077400 -22.291500 -0.000108 -0.000004 15.206400 5.611340 -12.034500 -2.192480 -6.469440 -0.000000 -172.404000 -10.455500 -7.779710 39.081100 -0.000007 -0.000012 1.014620 0.378984 110.479000 40.985400 -0.000006 -0.000013 -6.492040 -6.516070 -8.923820 11.754300 -0.000000 0.000003 -0.002311 -0.032555 -17.900600 -2.192510 6.469440 -0.000001 -169.493000 10.815100 135.489000 -39.081100 -0.002282 -0.040193 -0.210908 0.174256 50.864900 -40.985400 0.000008 0.000006 7.233440 2.325970 -68.398000 -11.754300 -0.000006 -0.000006 -0.008067 -0.088577 -20.180100
0.000000 0.000000 0.000000 0.000000 0.000000 -0.000000 4.935670 82.114600 -17.716600 84.052200 -0.135076 -8.029400 15.735700 0.000005 -0.000001 71.052200 81.051600 -68.078800 8.984550 -0.406207 -0.000000 9.352590 -5.737990 6.415930 16.377300 -0.000001 -0.000001 -4.600380 -1.581110 0.320858 6.456720 -0.000001 -0.000000 -8.786890 1.060750 1.319680 12.994200 -0.242716 4.980390 -90.309800 1.007620 -72.907200 5.348090 -0.000007 -0.000001 -64.562600 23.940300 -4.455480 24.328600 0.000019 0.000005 10.920000 12.266500 -42.283200 22.291600 -0.000001 0.000005 -2.504720 5.494190 -6.299490 12.994500 -0.242716 -4.980390 87.245500 10.739600 -75.523100 -5.348130 -0.000001 -0.000004 -55.678200 11.796600 -6.359610 -24.328900 0.000322 -0.000009 -9.990460 -3.013560 -73.400400 -22.291500 -0.000108 -0.000004 17.666000 5.618370 -12.506500 -2.192480 -6.469440 -0.000000 -172.644000 -10.665600 -22.489600 39.081100 -0.000007 -0.000012 0.385707 0.293995 127.313000 40.985400 -0.000006 -0.000013 -5.322470 -0.520348 -1.420500 11.754300 -0.000000 0.000003 -0.002699 -0.037157 -18.087800 -2.192510 6.469440 -0.000001 -167.688000 5.581920 141.207000 -39.081100 -0.002282 -0.040193 -0.297533 0.168760 60.700400 -40.985400 0.000008 0.000006 10.413100 -3.330070 -80.630600 -11.754300 -0.000006 -0.000006 -0.004877 -0.060269 -19.025200
0.000000 0.000000 0.000000 0.000000 0.000000 -0.000000 5.099750 80.722800 -7.082570 84.780400 -1.496710 -7.800110 15.735700 0.000005 -0.000001 79.704900 81.235800 -76.960100 8.984550 -0.406207 -0.000000 9.570270 -3.071210 5.743810 16.377300 -0.000001 -0.000001 -4.506670 -1.735510 0.551339 6.456720 -0.000001 -0.000000 -8.438110 0.094880 0.345724 12.994200 -0.242716 4.980390 -90.219000 0.680153 -72.150600 5.348090 -0.000007 -0.000001 -66.740800 21.918000 2.551880 24.328600 0.000019 0.000005 14.501800 17.977700 -39.964500 22.291600 -0.000001 0.000005 -4.554780 5.510730 -7.002260 12.994500 -0.242716 -4.980390 87.937900 9.490590 -77.684000 -5.348130 -0.000001 -0.000004 -53.673300 8.287950 -19.892700 -24.328900 0.000322 -0.000009 -8.921890 -1.222130 -82.258900 -22.291500 -0.000108 -0.000004 16.202900 5.605460 -11.668800 -2.192480 -6.469440 -0.000000 -176.524000 -7.420530 -39.962800 39.081100 -0.000007 -0.000012 -0.444104 -0.441543 134.834000 40.985400 -0.000006 -0.000013 -4.388160 3.934210 -1.494520 11.754300 -0.000000 0.000003 -0.002762 -0.037881 -18.117300 -2.192510 6.469440 -0.000001 -169.316000 6.322030 149.485000 -39.081100 -0.002282 -0.040193 0.279122 -0.142509 62.686100 -40.985400 0.000008 0.000006 12.826200 -4.735060 -90.128700 -11.754300 -0.000006 -0.000006 -0.008136 -0.089138 -20.203000
0.000000 0.000000 0.000000 0.000000 0.000000 -0.000000 6.289750 81.611900 4.932420 88.511800 -3.873100 -9.003210 15.735700 0.000005 -0.000001 93.472300 82.229000 -92.149200 8.984550 -0.406207 -0.000000 7.738650 0.937190 2.580100 16.377300 -0.000001 -0.000001 -3.660780 -2.458590 1.271330 6.456720 -0.000001 -0.000000 -7.453850 -2.302410 0.345808 12.994200 -0.242716 4.980390 -90.173300 0.485738 -70.338000 5.348090 -0.000007 -0.000001 -66.348500 26.072400 9.643370 24.328600 0.000019 0.000005 11.514300 11.828500 -44.849400 22.291600 -0.000001 0.000005 -6.966640 5.519770 -7.352970 12.994500 -0.242716 -4.980390 88.562800 7.211250 -78.699000 -5.348130 -0.000001 -0.000004 -50.692000 4.870710 -28.020600 -24.328900 0.000322 -0.000009 -8.385170 0.170973 -91.162100 -22.291500 -0.000108 -0.000004 16.121800 5.586650 -10.580400 -2.192480 -6.469440 -0.000000 176.175000 -5.238020 -49.758200 39.081100 -0.000007 -0.000012 -0.700504 -0.597461 130.460000 40.985400 -0.000006 -0.000013 4.156060 -0.093137 -18.381400 11.754300 -0.000000 0.000003 -0.002065 -0.029538 -17.777900 -2.192510 6.469440 -0.000001 -176.665000 8.518470 160.453000 -39.081100 -0.002282 -0.040193 0.227079 -0.149030 56.347200 -40.985400 0.000008 0.000006 12.678600 0.045358 -92.066300 -11.754300 -0.000006 -0.000006 -0.021492 -0.175415 -23.742800
